<svg xmlns="http://www.w3.org/2000/svg" viewBox="0 0 1775 532">
  <rect x="0" y="0" width="1775" height="532" fill="#046380"/>
  <path d="M 1575,369 L 1559,373 L 1553,373 L 1550,375 L 1544,375 L 1540,378 L 1540,392 L 1538,399 L 1538,414 L 1536,422 L 1536,432 L 1534,436 L 1528,442 L 1522,445 L 1515,445 L 1510,439 L 1510,429 L 1512,420 L 1512,408 L 1514,403 L 1514,391 L 1516,383 L 1516,370 L 1511,370 L 1502,373 L 1496,373 L 1493,375 L 1486,375 L 1484,376 L 1481,387 L 1480,413 L 1478,419 L 1477,444 L 1478,452 L 1480,457 L 1486,464 L 1493,467 L 1508,468 L 1522,464 L 1524,462 L 1531,459 L 1532,457 L 1533,468 L 1535,468 L 1550,462 L 1554,462 L 1565,459 L 1567,457 L 1567,451 L 1569,445 L 1570,421 L 1572,413 L 1572,398 L 1574,393 L 1574,379 L 1576,371 Z M 373,369 L 366,370 L 357,373 L 352,373 L 349,375 L 342,375 L 339,378 L 338,381 L 338,397 L 336,404 L 335,417 L 335,428 L 333,437 L 333,453 L 331,459 L 332,468 L 334,468 L 346,464 L 349,462 L 352,462 L 355,460 L 361,459 L 365,457 L 365,454 L 367,449 L 367,435 L 369,428 L 369,415 L 370,403 L 372,395 L 372,380 L 374,374 Z M 1711,368 L 1695,370 L 1689,373 L 1687,373 L 1685,375 L 1683,375 L 1677,379 L 1665,392 L 1665,394 L 1661,400 L 1660,406 L 1658,409 L 1657,418 L 1658,434 L 1660,437 L 1660,440 L 1663,444 L 1663,446 L 1675,459 L 1684,464 L 1686,464 L 1692,467 L 1700,468 L 1717,467 L 1722,466 L 1725,464 L 1728,464 L 1731,462 L 1734,462 L 1736,460 L 1739,459 L 1739,436 L 1733,438 L 1731,440 L 1728,440 L 1726,442 L 1710,445 L 1698,442 L 1692,436 L 1692,431 L 1707,432 L 1715,431 L 1730,425 L 1738,419 L 1742,414 L 1745,408 L 1745,396 L 1744,392 L 1739,383 L 1728,373 L 1721,370 L 1716,370 Z M 1719,398 L 1719,400 L 1718,402 L 1716,404 L 1713,406 L 1710,407 L 1708,407 L 1705,409 L 1701,409 L 1698,411 L 1691,410 L 1691,408 L 1692,405 L 1694,403 L 1694,401 L 1701,394 L 1704,392 L 1712,392 L 1716,394 L 1718,396 Z M 1637,371 L 1634,370 L 1629,370 L 1624,368 L 1621,368 L 1616,370 L 1611,370 L 1606,373 L 1604,373 L 1598,377 L 1589,387 L 1588,391 L 1586,394 L 1586,405 L 1589,415 L 1598,425 L 1615,437 L 1616,441 L 1613,445 L 1602,446 L 1594,443 L 1589,439 L 1586,439 L 1586,451 L 1588,464 L 1595,467 L 1602,468 L 1612,468 L 1624,466 L 1627,464 L 1629,464 L 1631,462 L 1637,459 L 1641,455 L 1644,449 L 1646,447 L 1647,442 L 1647,432 L 1646,428 L 1644,426 L 1643,423 L 1636,416 L 1625,409 L 1615,401 L 1615,393 L 1618,390 L 1630,390 L 1636,394 L 1641,399 L 1644,400 L 1646,398 L 1645,385 L 1643,375 Z M 1192,370 L 1179,368 L 1174,370 L 1169,370 L 1166,371 L 1154,378 L 1148,385 L 1144,394 L 1144,405 L 1147,415 L 1156,425 L 1173,437 L 1173,443 L 1171,445 L 1167,446 L 1160,446 L 1156,445 L 1146,438 L 1144,439 L 1144,451 L 1146,464 L 1150,466 L 1160,468 L 1170,468 L 1182,466 L 1185,464 L 1187,464 L 1197,457 L 1204,446 L 1205,442 L 1205,432 L 1204,428 L 1200,422 L 1194,416 L 1177,405 L 1173,401 L 1173,393 L 1176,390 L 1188,390 L 1194,394 L 1199,399 L 1201,400 L 1203,399 L 1203,385 L 1201,375 Z M 1122,371 L 1109,368 L 1106,368 L 1101,370 L 1096,370 L 1084,376 L 1079,380 L 1075,385 L 1072,391 L 1072,410 L 1073,413 L 1075,415 L 1075,417 L 1083,425 L 1098,435 L 1101,438 L 1101,442 L 1098,445 L 1095,446 L 1087,446 L 1079,443 L 1073,438 L 1071,441 L 1073,464 L 1080,467 L 1087,468 L 1097,468 L 1109,466 L 1112,464 L 1114,464 L 1120,460 L 1130,449 L 1132,443 L 1132,431 L 1130,428 L 1130,426 L 1121,416 L 1100,401 L 1099,399 L 1099,394 L 1103,390 L 1115,390 L 1121,394 L 1126,399 L 1130,399 L 1130,378 Z M 989,373 L 982,378 L 977,383 L 972,390 L 969,396 L 969,398 L 967,400 L 964,412 L 964,433 L 965,438 L 967,441 L 967,443 L 970,449 L 974,455 L 979,460 L 989,466 L 997,468 L 1005,468 L 1010,467 L 1026,459 L 1027,465 L 1032,467 L 1034,467 L 1040,464 L 1042,464 L 1044,462 L 1046,462 L 1056,457 L 1056,455 L 1053,452 L 1052,446 L 1054,424 L 1056,417 L 1056,405 L 1058,400 L 1058,388 L 1060,381 L 1061,368 L 1045,368 L 1040,370 L 1033,370 L 1031,372 L 1030,376 L 1028,376 L 1018,370 L 1009,368 L 997,370 L 991,373 Z M 1019,392 L 1021,394 L 1024,395 L 1027,398 L 1027,413 L 1025,419 L 1024,426 L 1024,435 L 1023,438 L 1019,442 L 1015,444 L 1012,445 L 1009,445 L 1004,442 L 1003,440 L 1001,439 L 998,429 L 998,412 L 1001,402 L 1003,400 L 1003,398 L 1009,392 Z M 901,370 L 891,370 L 882,373 L 877,373 L 874,375 L 870,375 L 866,378 L 856,371 L 842,368 L 837,370 L 832,370 L 826,373 L 813,385 L 808,394 L 808,396 L 806,398 L 806,401 L 804,403 L 801,418 L 801,432 L 804,446 L 806,448 L 806,450 L 813,460 L 817,462 L 818,464 L 825,467 L 830,468 L 845,467 L 858,460 L 859,463 L 854,473 L 848,479 L 840,483 L 823,483 L 814,478 L 811,478 L 808,491 L 806,494 L 805,503 L 812,507 L 822,509 L 845,508 L 859,503 L 871,495 L 881,485 L 890,470 L 893,459 L 893,449 L 895,443 L 895,431 L 897,425 L 898,404 L 900,397 L 900,385 L 902,380 Z M 853,392 L 857,394 L 863,400 L 864,402 L 864,415 L 863,430 L 862,434 L 861,436 L 854,443 L 850,445 L 842,445 L 839,443 L 837,441 L 835,437 L 833,430 L 833,421 L 835,416 L 835,410 L 837,407 L 837,405 L 840,399 L 847,392 Z M 636,371 L 632,373 L 630,375 L 628,375 L 619,383 L 614,390 L 614,392 L 611,396 L 611,398 L 609,401 L 609,404 L 607,407 L 606,415 L 606,431 L 607,438 L 609,440 L 609,443 L 616,455 L 621,460 L 627,464 L 634,467 L 640,468 L 648,468 L 653,467 L 668,459 L 670,466 L 676,467 L 682,464 L 684,464 L 686,462 L 688,462 L 698,457 L 698,455 L 696,453 L 694,449 L 694,443 L 696,436 L 696,424 L 698,419 L 698,408 L 700,400 L 701,379 L 703,374 L 703,368 L 687,368 L 682,370 L 674,371 L 673,375 L 670,376 L 660,370 L 651,368 Z M 661,392 L 663,394 L 666,395 L 669,397 L 670,401 L 669,415 L 667,419 L 667,428 L 666,433 L 664,440 L 661,442 L 657,444 L 654,445 L 651,445 L 647,443 L 645,441 L 643,438 L 643,436 L 641,434 L 640,426 L 640,415 L 641,407 L 643,405 L 643,402 L 645,400 L 646,397 L 649,394 L 652,392 Z M 176,371 L 166,377 L 158,385 L 155,389 L 153,394 L 151,396 L 151,399 L 148,405 L 148,410 L 146,415 L 146,431 L 148,435 L 148,439 L 151,445 L 151,447 L 158,457 L 167,464 L 169,464 L 171,466 L 180,468 L 188,468 L 196,466 L 206,459 L 207,457 L 211,467 L 214,468 L 222,464 L 224,464 L 226,462 L 228,462 L 231,460 L 236,459 L 238,457 L 238,454 L 235,451 L 235,437 L 237,431 L 237,420 L 238,410 L 240,403 L 240,391 L 242,386 L 243,368 L 227,368 L 223,370 L 215,370 L 212,377 L 207,373 L 205,373 L 203,371 L 192,368 L 189,368 L 184,370 L 179,370 Z M 201,392 L 207,395 L 210,398 L 210,406 L 208,415 L 208,424 L 206,428 L 206,437 L 205,439 L 202,442 L 200,443 L 198,443 L 195,445 L 192,445 L 182,435 L 182,431 L 180,427 L 180,414 L 182,410 L 182,406 L 184,403 L 184,401 L 185,399 L 192,392 Z M 1406,368 L 1406,371 L 1404,373 L 1400,373 L 1397,375 L 1394,375 L 1392,377 L 1385,380 L 1377,387 L 1370,397 L 1370,399 L 1368,401 L 1365,411 L 1365,431 L 1368,441 L 1370,443 L 1370,445 L 1375,452 L 1382,459 L 1385,461 L 1399,467 L 1407,468 L 1419,468 L 1431,466 L 1434,464 L 1437,464 L 1439,462 L 1447,458 L 1454,452 L 1461,442 L 1462,438 L 1464,435 L 1464,432 L 1466,430 L 1467,422 L 1467,407 L 1466,401 L 1464,398 L 1464,395 L 1459,386 L 1453,380 L 1446,375 L 1444,375 L 1442,373 L 1440,373 L 1434,370 L 1430,370 L 1427,368 L 1416,367 Z M 1413,392 L 1419,392 L 1422,394 L 1424,394 L 1428,397 L 1430,399 L 1432,402 L 1434,406 L 1435,409 L 1435,424 L 1432,434 L 1430,437 L 1427,440 L 1423,443 L 1421,445 L 1411,445 L 1406,442 L 1403,439 L 1401,436 L 1399,432 L 1398,426 L 1398,419 L 1399,414 L 1399,408 L 1401,406 L 1401,403 L 1403,401 L 1404,399 L 1408,395 L 1412,393 Z M 424,368 L 424,371 L 422,373 L 417,373 L 415,375 L 412,375 L 403,380 L 395,387 L 393,391 L 391,392 L 389,395 L 388,399 L 386,401 L 386,404 L 384,406 L 383,411 L 383,431 L 384,436 L 391,450 L 400,459 L 406,462 L 408,464 L 410,464 L 413,466 L 425,468 L 437,468 L 449,466 L 452,464 L 454,464 L 466,457 L 475,448 L 478,442 L 480,440 L 480,438 L 482,435 L 482,432 L 484,429 L 485,423 L 485,407 L 484,401 L 482,398 L 482,395 L 480,393 L 480,391 L 475,384 L 471,380 L 464,375 L 462,375 L 460,373 L 458,373 L 455,371 L 452,370 L 448,370 L 444,368 L 433,367 Z M 431,392 L 436,392 L 442,394 L 450,402 L 451,404 L 451,406 L 453,409 L 453,424 L 451,431 L 448,437 L 442,443 L 438,445 L 429,445 L 424,442 L 420,438 L 417,432 L 415,422 L 415,418 L 417,413 L 417,408 L 418,405 L 420,401 L 422,398 L 424,397 L 426,395 L 430,393 Z M 503,374 L 501,381 L 501,397 L 499,402 L 499,417 L 497,426 L 496,453 L 494,459 L 494,466 L 496,468 L 504,467 L 510,464 L 513,464 L 515,462 L 527,459 L 529,457 L 530,438 L 533,419 L 533,407 L 535,402 L 541,396 L 549,392 L 558,392 L 561,395 L 563,400 L 563,411 L 561,420 L 561,434 L 559,440 L 559,453 L 557,460 L 557,466 L 559,468 L 571,466 L 574,464 L 578,464 L 581,462 L 585,462 L 589,460 L 590,444 L 593,426 L 593,415 L 595,409 L 595,389 L 593,386 L 593,382 L 590,376 L 582,370 L 570,368 L 563,370 L 556,370 L 547,373 L 545,375 L 536,377 L 536,366 L 531,368 L 527,368 L 524,370 L 518,370 Z M 43,374 L 40,397 L 40,411 L 38,418 L 38,433 L 36,440 L 35,467 L 37,468 L 44,467 L 50,464 L 53,464 L 56,462 L 59,462 L 62,460 L 67,459 L 69,457 L 70,440 L 72,433 L 72,420 L 74,414 L 74,405 L 76,401 L 80,397 L 90,392 L 98,392 L 103,398 L 103,415 L 101,424 L 100,448 L 98,453 L 98,467 L 103,468 L 130,460 L 132,427 L 134,422 L 135,409 L 135,389 L 132,379 L 126,372 L 122,370 L 111,368 L 93,371 L 78,378 L 77,366 L 75,366 L 72,368 L 67,368 L 64,370 L 54,371 Z M 304,344 L 300,344 L 297,346 L 283,349 L 276,349 L 271,351 L 269,361 L 269,370 L 268,375 L 266,377 L 261,377 L 249,396 L 252,399 L 266,400 L 266,416 L 264,422 L 264,450 L 268,459 L 273,464 L 279,467 L 286,468 L 301,467 L 306,466 L 309,464 L 313,464 L 315,462 L 321,461 L 323,459 L 323,455 L 321,450 L 321,444 L 319,440 L 315,440 L 313,442 L 308,443 L 300,443 L 297,440 L 296,437 L 297,414 L 298,405 L 300,399 L 316,399 L 319,396 L 324,385 L 324,383 L 326,380 L 325,377 L 302,376 L 302,365 L 304,357 Z M 957,334 L 951,334 L 943,337 L 937,337 L 933,339 L 926,339 L 922,341 L 921,343 L 921,363 L 919,371 L 919,389 L 917,399 L 916,411 L 916,426 L 914,433 L 914,450 L 912,458 L 912,467 L 914,469 L 917,469 L 920,467 L 923,467 L 929,464 L 932,464 L 934,462 L 937,462 L 940,460 L 942,460 L 946,458 L 947,456 L 948,448 L 948,433 L 950,427 L 950,413 L 952,404 L 953,392 L 953,378 L 955,372 L 955,357 L 957,350 Z M 758,334 L 751,334 L 743,337 L 737,337 L 734,339 L 727,339 L 724,340 L 722,342 L 722,352 L 720,362 L 720,380 L 719,395 L 717,404 L 717,420 L 715,426 L 715,442 L 713,452 L 713,467 L 715,469 L 718,469 L 721,467 L 726,466 L 729,464 L 732,464 L 734,462 L 737,462 L 740,460 L 745,459 L 747,457 L 748,453 L 749,441 L 749,427 L 751,421 L 751,406 L 753,399 L 753,386 L 754,374 L 756,365 L 756,350 L 758,344 Z M 1298,329 L 1293,329 L 1286,332 L 1280,332 L 1278,334 L 1273,334 L 1264,337 L 1262,350 L 1262,367 L 1260,375 L 1259,405 L 1257,415 L 1257,433 L 1255,439 L 1254,466 L 1256,468 L 1286,459 L 1288,457 L 1293,405 L 1294,402 L 1300,396 L 1308,392 L 1316,392 L 1320,396 L 1322,402 L 1319,441 L 1317,449 L 1317,467 L 1321,468 L 1349,460 L 1349,442 L 1351,437 L 1351,424 L 1353,418 L 1354,406 L 1353,386 L 1348,376 L 1345,373 L 1339,370 L 1330,368 L 1316,370 L 1307,373 L 1305,375 L 1302,375 L 1300,377 L 1296,377 L 1296,365 L 1298,359 L 1298,345 L 1300,331 Z M 377,325 L 374,325 L 373,326 L 371,327 L 367,327 L 363,329 L 359,329 L 353,330 L 349,332 L 345,332 L 343,334 L 342,339 L 341,349 L 342,361 L 346,361 L 350,359 L 355,359 L 361,358 L 365,356 L 371,356 L 375,354 L 375,352 L 377,340 Z M 1117,261 L 1117,278 L 1745,277 L 1743,260 Z M 35,261 L 36,278 L 662,278 L 664,276 L 664,263 L 661,260 Z M 1116,229 L 1117,245 L 1745,244 L 1745,228 Z M 35,228 L 36,245 L 664,244 L 663,228 Z M 856,165 L 856,282 L 926,281 L 925,164 Z M 698,219 L 725,246 L 891,81 L 1055,246 L 1058,246 L 1082,220 L 1004,143 L 1002,51 L 969,52 L 968,104 L 893,29 L 885,32 Z" fill="#ffffff" fill-rule="evenodd"/>
</svg>